<svg width="70" height="68" viewBox="0 0 70 68" fill="none" xmlns="http://www.w3.org/2000/svg">
<path d="M40.5 48.782V45.091H44.188V41.406H47.876V37.715H51.562V41.406H55.25V37.715H58.939V34.03H55.25H51.562V30.339V26.654H55.25H58.939H62.63V22.97H58.939H55.25V19.279H58.939H62.63H66.317H70V15.594V11.903V8.218V4.527H66.315V0.841995H62.628H58.937H55.248H51.56H47.874H44.186H40.5V4.527H36.812V8.218V11.903V15.594V19.279V22.97H33.127V26.655H29.436V30.34H25.751V34.031H22.06V37.647V37.715H18.375H14.752H14.684H11.061V34.03H7.376V30.339H3.685V26.654V22.97H0V26.655V30.34V34.031V37.716H3.685V41.407H7.376V45.092H11.061V48.783H14.684V52.406H18.375V52.468V56.091H22.06H22.081V59.783V63.468V67.159H25.766H29.457V63.468H25.766V59.783V56.166H29.437V52.475H33.128V56.166H36.813V59.783V63.468H36.792V67.159H40.483H44.168V63.468H40.5V59.783V56.166V56.09V52.474V48.789V48.782ZM44.188 15.594V11.903H47.876V15.594H44.188Z" fill="black"/>
</svg>
